<svg id="Layer_1" data-name="Layer 1" xmlns="http://www.w3.org/2000/svg" viewBox="0 0 475.89 97"><defs><style>.cls-1{fill:#0176ab;}</style></defs><title>MC Long</title><path class="cls-1" d="M27.93,29.2a5.93,5.93,0,1,0-3.61-7.68A6,6,0,0,0,27.93,29.2Z"/><path class="cls-1" d="M97.55,22.43a2.74,2.74,0,0,0-3.74-1L57.59,41.76a5.38,5.38,0,0,0-.55-.24A4.76,4.76,0,1,0,60,47.69a4.39,4.39,0,0,0,.26-1.1l8.37-4.71a15.27,15.27,0,0,1,1.07,4.75A14.06,14.06,0,0,1,56.71,61.2a14.62,14.62,0,0,1-16-12.52,14.36,14.36,0,0,1,12.51-16c3.44-.42,4.35-.22,7.91,1.11a4,4,0,1,0,2.83-7.58C59.32,24.46,57.1,24,52.21,24.62A22.46,22.46,0,0,0,32.65,49.67,22.6,22.6,0,0,0,55.33,69.36c.68,0,1.38,0,2.08-.09a22.14,22.14,0,0,0,20.33-23,22.83,22.83,0,0,0-2.07-8.41l4.55-2.56A28.35,28.35,0,1,1,27.29,39.7a4.41,4.41,0,1,0-8.49-2.42A37.19,37.19,0,1,0,87.93,31l8.57-4.82A2.75,2.75,0,0,0,97.55,22.43Z"/><path class="cls-1" d="M46.07,20.37a28.4,28.4,0,0,1,24.34,3.52,4.42,4.42,0,1,0,4.93-7.33A37.27,37.27,0,0,0,43.42,12a4.41,4.41,0,1,0,2.65,8.42Z"/><path class="cls-1" d="M109.18,57.25a1.31,1.31,0,0,1-.56-1.12A1.42,1.42,0,0,1,110,54.68a1.33,1.33,0,0,1,.89.33,11.85,11.85,0,0,0,8.23,3.1c3.5,0,5.81-1.87,5.81-4.44V53.6c0-2.42-1.3-3.8-6.78-5-6-1.31-8.75-3.24-8.75-7.53v-.07c0-4.1,3.61-7.11,8.56-7.11a13.25,13.25,0,0,1,8.31,2.57,1.49,1.49,0,0,1,.63,1.19,1.41,1.41,0,0,1-1.41,1.41,1.35,1.35,0,0,1-.86-.26,10.91,10.91,0,0,0-6.74-2.27c-3.39,0-5.55,1.86-5.55,4.21v.07c0,2.46,1.34,3.84,7.08,5.07S128,49.32,128,53.3v.08c0,4.46-3.73,7.37-8.9,7.37A15.22,15.22,0,0,1,109.18,57.25Z"/><path class="cls-1" d="M131.3,47.42v-.08a13.3,13.3,0,1,1,26.59-.07v.07a13.3,13.3,0,1,1-26.59.08Zm23.54,0v-.08c0-5.92-4.32-10.76-10.28-10.76s-10.21,4.77-10.21,10.69v.07c0,5.92,4.32,10.77,10.28,10.77S154.84,53.34,154.84,47.42Z"/><path class="cls-1" d="M167.76,37H160.2a1.37,1.37,0,0,1-1.38-1.34,1.4,1.4,0,0,1,1.38-1.38h18.1a1.4,1.4,0,0,1,1.38,1.38A1.37,1.37,0,0,1,178.3,37h-7.56v22a1.49,1.49,0,0,1-3,0Z"/><path class="cls-1" d="M183.81,35.61a1.47,1.47,0,1,1,2.94,0V59.07a1.47,1.47,0,1,1-2.94,0Z"/><path class="cls-1" d="M203.14,36.19a2.32,2.32,0,0,1,2.33-2.34H206a2.45,2.45,0,0,1,2.15,1.24l8,12.51,8-12.54a2.32,2.32,0,0,1,2.11-1.21h.49a2.32,2.32,0,0,1,2.34,2.34V58.26a2.3,2.3,0,0,1-2.34,2.3,2.33,2.33,0,0,1-2.3-2.3V42.44L218,52.12a2.16,2.16,0,0,1-3.88,0l-6.4-9.61V58.3a2.25,2.25,0,0,1-2.3,2.26,2.22,2.22,0,0,1-2.26-2.26Z"/><path class="cls-1" d="M232.45,47.26v-.07A13.79,13.79,0,0,1,260,47.11v.08a13.79,13.79,0,0,1-27.57.07Zm22.72,0v-.07c0-5.13-3.73-9.38-9-9.38s-8.89,4.18-8.89,9.3v.08c0,5.12,3.73,9.34,9,9.34S255.17,52.39,255.17,47.26Z"/><path class="cls-1" d="M263.42,36.34A2.3,2.3,0,0,1,265.75,34h9.49c3,0,5.39.83,6.9,2.34a5.89,5.89,0,0,1,1.77,4.37v.07a6.28,6.28,0,0,1-3.77,5.88c3.09,1.05,5.24,2.82,5.24,6.4v.08c0,4.71-3.88,7.23-9.76,7.23h-9.87A2.29,2.29,0,0,1,263.42,58Zm10.88,8.77c3,0,5-1.16,5-3.57v-.08c0-2.07-1.66-3.35-4.64-3.35H268v7Zm1.36,11.16c3.16,0,5.08-1.25,5.08-3.62v-.08c0-2.22-1.77-3.54-5.42-3.54H268v7.24Z"/><path class="cls-1" d="M288.66,36.11a2.32,2.32,0,0,1,4.63,0V58.26a2.32,2.32,0,0,1-4.63,0Z"/><path class="cls-1" d="M296.94,47.26v-.07a13.35,13.35,0,0,1,13.6-13.64,13.81,13.81,0,0,1,9,3,2.33,2.33,0,0,1,.91,1.85,2.25,2.25,0,0,1-2.3,2.26,2.22,2.22,0,0,1-1.39-.45,9.57,9.57,0,0,0-6.3-2.37c-5,0-8.7,4.14-8.7,9.3v.08c0,5.16,3.66,9.34,8.7,9.34A9.47,9.47,0,0,0,317.1,54a2.11,2.11,0,0,1,1.39-.52,2.16,2.16,0,0,1,1.43,3.8,13.44,13.44,0,0,1-9.57,3.54A13.26,13.26,0,0,1,296.94,47.26Z"/><path class="cls-1" d="M321.77,47.26v-.07a13.79,13.79,0,0,1,27.58-.08v.08a13.79,13.79,0,0,1-27.58.07Zm22.72,0v-.07c0-5.13-3.73-9.38-9-9.38s-8.89,4.18-8.89,9.3v.08c0,5.12,3.73,9.34,9,9.34S344.49,52.39,344.49,47.26Z"/><path class="cls-1" d="M352.74,36.19a2.32,2.32,0,0,1,2.33-2.34h.49A2.92,2.92,0,0,1,358,35.21l13.19,17.06V36.07a2.28,2.28,0,0,1,4.56,0V58.22a2.25,2.25,0,0,1-2.26,2.3h-.19a2.91,2.91,0,0,1-2.41-1.39L357.29,41.57V58.3a2.28,2.28,0,0,1-4.55,0Z"/><path class="cls-1" d="M386.72,38.3h-6.41a2.15,2.15,0,1,1,0-4.3h17.52a2.15,2.15,0,0,1,0,4.3h-6.44v20a2.34,2.34,0,0,1-4.67,0Z"/><path class="cls-1" d="M402.39,36.34A2.3,2.3,0,0,1,404.72,34h9.42a10.6,10.6,0,0,1,7.61,2.64,8,8,0,0,1,2.19,5.69v.07c0,4.22-2.45,6.78-6,7.88L423,56.64a2.71,2.71,0,0,1,.75,1.77,2.19,2.19,0,0,1-2.22,2.15,2.63,2.63,0,0,1-2.26-1.21l-6.41-8.17H407v7.08a2.32,2.32,0,0,1-4.63,0ZM413.8,47.07c3.32,0,5.43-1.73,5.43-4.4v-.08c0-2.83-2-4.37-5.46-4.37H407v8.85Z"/><path class="cls-1" d="M426.24,47.26v-.07a13.79,13.79,0,0,1,27.57-.08v.08a13.79,13.79,0,0,1-27.57.07Zm22.71,0v-.07c0-5.13-3.73-9.38-9-9.38s-8.89,4.18-8.89,9.3v.08c0,5.12,3.72,9.34,9,9.34S449,52.39,449,47.26Z"/><path class="cls-1" d="M457.2,36.11a2.32,2.32,0,0,1,4.64,0v20h11.94a2.11,2.11,0,1,1,0,4.22H459.54A2.3,2.3,0,0,1,457.2,58Z"/></svg>